<svg xmlns="http://www.w3.org/2000/svg" width="343" height="123" viewBox="0 0 343 123">
  <g id="صورة_بطاقة_التسويق" data-name="صورة بطاقة التسويق" transform="translate(-16 -103)">
    <rect id="Rectangle_6256" data-name="Rectangle 6256" width="343" height="123" rx="8" transform="translate(16 103)" fill="#439025"/>
    <g id="Group_16082" data-name="Group 16082" opacity="0.05">
      <line id="Line_23" data-name="Line 23" y1="43" transform="translate(40 183)" fill="none" stroke="#000" stroke-width="11"/>
      <line id="Line_23-2" data-name="Line 23" y1="67" transform="translate(55 159)" fill="none" stroke="#000" stroke-width="11"/>
      <line id="Line_23-3" data-name="Line 23" y1="59" transform="translate(70 167)" fill="none" stroke="#000" stroke-width="11"/>
      <line id="Line_23-4" data-name="Line 23" y1="71" transform="translate(85 155)" fill="none" stroke="#000" stroke-width="11"/>
      <line id="Line_23-5" data-name="Line 23" y1="88" transform="translate(100 138)" fill="none" stroke="#000" stroke-width="11"/>
      <line id="Line_23-6" data-name="Line 23" y1="55" transform="translate(115 171)" fill="none" stroke="#000" stroke-width="11"/>
      <line id="Line_23-7" data-name="Line 23" y1="77" transform="translate(130 149)" fill="none" stroke="#000" stroke-width="11"/>
      <line id="Line_23-8" data-name="Line 23" y1="20" transform="translate(145 206)" fill="none" stroke="#000" stroke-width="11"/>
      <line id="Line_23-9" data-name="Line 23" y1="65" transform="translate(160 161)" fill="none" stroke="#000" stroke-width="11"/>
      <line id="Line_23-10" data-name="Line 23" y1="88" transform="translate(175 138)" fill="none" stroke="#000" stroke-width="11"/>
      <line id="Line_23-11" data-name="Line 23" y1="55" transform="translate(190 171)" fill="none" stroke="#000" stroke-width="11"/>
      <line id="Line_23-12" data-name="Line 23" y1="32" transform="translate(205 194)" fill="none" stroke="#000" stroke-width="11"/>
      <line id="Line_23-13" data-name="Line 23" y1="47" transform="translate(220 179)" fill="none" stroke="#000" stroke-width="11"/>
      <line id="Line_23-14" data-name="Line 23" y1="23" transform="translate(235 203)" fill="none" stroke="#000" stroke-width="11"/>
      <line id="Line_23-15" data-name="Line 23" y1="35" transform="translate(250 191)" fill="none" stroke="#000" stroke-width="11"/>
      <line id="Line_23-16" data-name="Line 23" y1="17" transform="translate(265 209)" fill="none" stroke="#000" stroke-width="11"/>
      <line id="Line_23-17" data-name="Line 23" y1="61" transform="translate(280 165)" fill="none" stroke="#000" stroke-width="11"/>
      <line id="Line_23-18" data-name="Line 23" y1="50" transform="translate(295 176)" fill="none" stroke="#000" stroke-width="11"/>
      <line id="Line_23-19" data-name="Line 23" y1="27" transform="translate(310 199)" fill="none" stroke="#000" stroke-width="11"/>
      <line id="Line_23-20" data-name="Line 23" y1="21" transform="translate(325 205)" fill="none" stroke="#000" stroke-width="11"/>
      <line id="Line_23-21" data-name="Line 23" y1="61" transform="translate(340 165)" fill="none" stroke="#000" stroke-width="11"/>
    </g>
    <g id="Group_16083" data-name="Group 16083" opacity="0.48">
      <path id="Polygon_8" data-name="Polygon 8" d="M9,0,8.2,3.775,12,5,8.2,6.225,9,10,6,7.45,3,10l.8-3.775L0,5,3.795,3.775,3,0,6,2.55Z" transform="translate(41 127)" opacity="0.53"/>
      <path id="Polygon_9" data-name="Polygon 9" d="M6,0,5.47,2.642,8,3.5l-2.53.857L6,7,4,5.215,2,7l.53-2.642L0,3.5l2.53-.858L2,0,4,1.785Z" transform="translate(68 158)" opacity="0.53"/>
      <path id="Polygon_10" data-name="Polygon 10" d="M3.5,0,4.76,2.24,7,3.5,4.76,4.76,3.5,7,2.24,4.76,0,3.5,2.24,2.24Z" transform="matrix(0.966, 0.259, -0.259, 0.966, 111.525, 110.213)" opacity="0.53"/>
      <path id="Polygon_11" data-name="Polygon 11" d="M3.5,0,4.76,2.24,7,3.5,4.76,4.76,3.5,7,2.24,4.76,0,3.5,2.24,2.24Z" transform="matrix(0.966, 0.259, -0.259, 0.966, 189.525, 150.213)" opacity="0.53"/>
      <path id="Polygon_12" data-name="Polygon 12" d="M5.5,0,7.48,3.52,11,5.5,7.48,7.48,5.5,11,3.52,7.48,0,5.5,3.52,3.52Z" transform="matrix(0.966, 0.259, -0.259, 0.966, 194.561, 117.35)" opacity="0.53"/>
      <path id="Polygon_13" data-name="Polygon 13" d="M5,0,6.8,3.2,10,5,6.8,6.8,5,10,3.2,6.8,0,5,3.2,3.2Z" transform="matrix(0.966, 0.259, -0.259, 0.966, 229.302, 142.316)" opacity="0.53"/>
      <path id="Polygon_14" data-name="Polygon 14" d="M5,0,6.8,3.2,10,5,6.8,6.8,5,10,3.2,6.8,0,5,3.2,3.2Z" transform="matrix(0.966, 0.259, -0.259, 0.966, 256.302, 108.316)" opacity="0.53"/>
      <path id="Polygon_15" data-name="Polygon 15" d="M5,0,6.8,3.2,10,5,6.8,6.8,5,10,3.2,6.8,0,5,3.2,3.2Z" transform="matrix(0.966, 0.259, -0.259, 0.966, 268.302, 156.316)" opacity="0.53"/>
      <path id="Polygon_16" data-name="Polygon 16" d="M5,0,6.8,3.2,10,5,6.8,6.8,5,10,3.2,6.8,0,5,3.2,3.2Z" transform="matrix(0.966, 0.259, -0.259, 0.966, 330.302, 125.316)" opacity="0.53"/>
    </g>
  </g>
</svg>
